<svg xmlns="http://www.w3.org/2000/svg" width="1055" height="245">
    <path d="M309 234a45 45 0 0 1-18-15c-4-7-2-17 3-26A27462 27462 0 0 1 431 20c4-5 8-8 15-10h10c7 1 10 3 16 9 5 5 8 10 8 17a30 30 0 0 1-3 16L340 228a31 31 0 0 1-31 6zm624 1c-6-1-12-5-15-8l-3-6-2-4V78h57v65c0 70 0 72-4 79-5 11-17 15-33 13zm-493-1c-8-3-11-5-30-25a473 473 0 0 1-18-20l39-49 22 24c20 23 20 23 23 30 3 9 4 18 1 23a54 54 0 0 1-17 16 37 37 0 0 1-20 1zm92 0a39 39 0 0 1-28-20 75 75 0 0 1-7-32c1-13 12-24 27-28 16-4 33 3 46 19l6 8c1 3 6 4 15 4 7 0 11-2 12-5 1-4 0-12-2-16-1-2-14-18-51-58a1385 1385 0 0 1-52-59 28 28 0 0 1-1-18c1-4 2-6 7-10 5-5 7-6 10-7 9-3 24-1 32 4 3 2 19 18 59 62 60 66 57 62 62 79 7 20 7 37 1 51-7 15-21 24-40 26h-97zm174-1c-8-2-14-10-15-21l-1-105V10l29-1h28v104l-1 104-2 4c-2 5-6 9-11 11-3 2-5 2-13 2-7 1-12 0-14-1zm-655-2c-12-2-20-9-24-19l-2-5V35l2-5a28 28 0 0 1 14-15l5-2h178l6 2c6 4 12 9 15 16l2 4v87l-1 91a27 27 0 0 1-12 14c-7 4-13 4-38 4h-23v-91h49l-43-53-42-54-43 54-43 54h54v91H80l-29-1zm714-27v-27h26l30 1c5 2 10 6 12 10a49 49 0 0 1 1 25 25 25 0 0 1-10 13c-6 4-10 5-36 5h-24v-27zM291 99c0-79-1-74 7-81 5-5 10-7 21-6 12 0 17 2 23 8 2 3 5 6 5 8 1 3 2 10 2 37v33l-27 33-30 35-2 2 1-69zm474 16V88l26 1c29 0 30 0 36 4 8 6 10 29 4 39a18 18 0 0 1-10 8c-3 2-7 2-30 2h-27v-27zM592 39l-26-28h42l46 1c6 2 12 7 15 13 2 4 2 5 2 14s0 11-2 14a25 25 0 0 1-13 12l-20 1h-18l-26-27zm172-3V9h24c27 0 32 1 37 5 6 4 8 8 9 20 1 15-2 21-11 25-6 3-12 4-36 4h-23V36zm104 27l-12-7c-6-6-7-10-7-19 0-8 0-9 2-13 3-5 8-10 13-12l4-2h143l5 2a27 27 0 0 1 12 12c2 4 2 5 2 13 0 7 0 9-2 12-2 5-7 10-12 12l-5 2-70 1-74-1z"
          fill="#fafafa"/>
</svg>
